<?xml version="1.0" standalone="no"?>
<!DOCTYPE svg PUBLIC "-//W3C//DTD SVG 20010904//EN"
 "http://www.w3.org/TR/2001/REC-SVG-20010904/DTD/svg10.dtd">
<svg version="1.0" xmlns="http://www.w3.org/2000/svg"
 width="600.000000pt" height="328.000000pt" viewBox="0 0 600.000000 328.000000"
 preserveAspectRatio="xMidYMid meet">
<g transform="translate(0.000000,328.000000) scale(0.100000,-0.100000)"
fill="#000000" stroke="none">
<path d="M1604 2452 c-43 -31 -104 -97 -104 -112 0 -6 -15 -10 -33 -10 -40 0
-128 -25 -179 -51 -55 -28 -106 -76 -131 -123 -26 -51 -41 -223 -19 -231 7 -3
12 -15 10 -27 -2 -16 -11 -24 -29 -26 -28 -3 -46 22 -30 42 4 6 11 50 13 97 3
47 11 96 18 108 25 48 2 27 -30 -27 -30 -49 -35 -68 -38 -134 -6 -116 41 -250
113 -321 12 -12 14 -22 8 -28 -28 -28 -129 161 -142 263 l-7 63 -9 -49 c-11
-69 0 -151 29 -210 35 -71 124 -179 143 -172 8 3 11 1 8 -4 -3 -5 13 -30 37
-55 l42 -46 -2 -85 -1 -84 29 0 30 0 0 103 0 103 -43 42 c-24 23 -46 39 -50
36 -10 -10 -37 16 -37 37 0 19 33 35 50 24 5 -3 10 -14 10 -24 0 -9 20 -37 45
-61 l45 -44 0 -108 c0 -107 0 -108 24 -108 32 0 36 14 36 138 l0 106 -60 59
c-35 34 -65 55 -72 51 -6 -4 -8 -3 -5 3 3 5 -16 32 -43 58 l-50 49 0 188 c0
215 4 230 73 298 36 34 43 47 35 58 -9 10 -6 14 10 19 12 3 19 10 15 16 -3 6
-1 7 6 3 6 -4 19 -2 27 5 12 10 13 9 8 -4 -3 -9 -19 -19 -36 -22 -18 -4 -26
-11 -21 -16 6 -6 27 -2 54 10 24 12 50 21 58 21 8 0 19 7 26 17 14 19 42 12
52 -13 3 -8 -2 -23 -11 -32 -13 -13 -20 -14 -35 -5 -46 29 -179 -55 -221 -138
-18 -34 -20 -59 -20 -212 l0 -173 38 -37 c21 -21 42 -34 47 -30 4 5 5 3 2 -3
-3 -6 28 -44 68 -84 l75 -74 0 -128 0 -128 25 0 25 0 0 203 0 203 -70 69 c-38
38 -72 66 -76 63 -3 -4 -2 -13 2 -20 5 -7 9 -17 9 -23 0 -5 5 -10 10 -10 6 0
19 -7 31 -15 16 -11 19 -20 13 -35 -5 -13 -8 -15 -8 -5 -1 8 -15 26 -33 40
-57 45 -62 52 -44 62 13 8 16 30 16 137 l0 127 35 34 c38 37 50 22 14 -17 -20
-20 -22 -33 -21 -139 l1 -118 72 -72 72 -72 1 -206 0 -206 23 0 c23 0 23 1 23
143 l0 142 59 62 58 62 -29 28 c-33 31 -88 120 -88 142 0 8 -18 30 -40 49 -42
35 -62 67 -74 115 -5 20 -3 27 8 27 8 0 16 -14 20 -33 7 -38 49 -88 95 -111
19 -11 53 -16 89 -15 75 2 149 -29 158 -66 7 -30 48 -65 76 -65 23 0 110 43
125 62 6 7 13 37 15 65 6 63 3 69 -110 192 -52 57 -85 103 -89 122 -4 22 -25
47 -72 85 -36 30 -76 57 -89 61 -22 5 -22 7 -16 94 4 49 5 89 2 89 -3 0 -23
-13 -44 -28z m13 -29 c1 -10 3 -33 5 -50 2 -18 1 -33 -3 -33 -4 0 -9 -9 -12
-20 -3 -10 -2 -19 2 -18 22 2 32 -4 27 -17 -3 -8 -2 -14 2 -14 19 3 33 -3 63
-28 18 -16 29 -22 25 -14 -6 10 -5 12 2 7 29 -18 -7 -59 -45 -52 -11 2 -30 -5
-44 -16 -13 -11 -19 -17 -13 -14 7 3 17 -8 24 -25 12 -29 46 -56 57 -45 3 3
14 1 24 -4 11 -7 20 -7 24 0 3 5 12 7 19 4 8 -3 17 -1 21 5 3 7 0 8 -9 5 -19
-7 -21 7 -3 25 10 11 10 13 0 7 -17 -9 -17 6 -1 24 11 13 11 13 -2 3 -19 -17
-28 -16 -26 3 0 9 -6 19 -14 21 -13 4 -13 3 0 -6 9 -7 10 -11 3 -11 -6 0 -15
5 -19 11 -8 13 16 30 30 22 5 -4 6 0 1 8 -7 11 -5 11 9 -1 24 -19 58 -98 49
-112 -3 -6 -2 -8 4 -5 11 7 55 -38 46 -46 -2 -3 5 -8 16 -12 12 -3 19 -11 16
-16 -4 -5 -2 -9 3 -9 5 0 22 -12 38 -26 16 -15 24 -23 17 -20 -6 3 -15 1 -19
-6 -4 -7 -4 -10 1 -6 25 23 76 -55 70 -106 -4 -31 -43 -79 -57 -70 -5 4 -18
-3 -29 -15 -22 -23 -39 -27 -39 -10 0 6 -7 8 -16 5 -8 -3 -12 -2 -9 4 3 6 -1
10 -9 10 -10 0 -13 7 -11 20 2 11 0 18 -4 15 -5 -3 -11 2 -14 10 -11 28 -89
58 -153 59 -42 1 -60 5 -57 12 2 7 0 15 -5 18 -5 3 -9 -1 -8 -9 0 -7 -3 -14
-9 -13 -5 0 -9 4 -7 10 1 5 -2 6 -8 3 -6 -4 -18 1 -26 11 -9 11 -13 13 -9 7 3
-7 4 -13 1 -13 -8 0 -47 69 -51 92 -3 13 -14 31 -26 41 -23 18 -54 24 -44 7 4
-6 11 -8 16 -4 6 3 5 -3 -3 -15 -17 -28 -31 -27 -23 2 5 20 5 20 -6 4 -7 -13
-8 -22 -1 -29 6 -6 8 -17 5 -26 -4 -10 -2 -13 5 -8 7 4 12 3 12 -3 0 -5 -6
-12 -12 -14 -7 -3 -4 -6 6 -6 11 -1 17 -4 13 -7 -6 -7 2 -18 54 -72 48 -50 71
-86 67 -109 -2 -10 2 -17 9 -16 7 2 10 -4 6 -13 -3 -8 -1 -14 4 -12 5 2 22
-11 36 -28 23 -27 25 -33 12 -44 -8 -7 -12 -16 -9 -21 3 -5 -3 -9 -12 -9 -10
0 -28 -9 -40 -21 -14 -13 -24 -17 -29 -10 -3 6 -2 11 4 11 6 0 4 14 -4 34 -8
18 -12 36 -9 39 3 3 -4 10 -15 17 -12 6 -21 18 -21 26 0 8 -4 13 -8 10 -12 -7
-95 81 -87 93 10 16 37 0 30 -18 -5 -13 -4 -13 6 -4 10 10 9 17 -9 33 -12 12
-22 16 -22 10 0 -5 -5 -10 -11 -10 -5 0 -7 5 -4 11 10 14 12 129 3 129 -5 0
-8 5 -8 11 0 5 5 7 10 4 13 -8 13 1 0 25 -8 15 -4 23 19 43 26 22 28 27 17 48
-8 17 -19 23 -36 21 l-25 -2 25 14 c22 13 28 13 50 -1 23 -15 24 -15 11 0 -11
15 -11 17 1 17 8 0 20 12 27 26 7 16 17 24 26 20 9 -3 12 0 8 10 -3 8 -12 13
-19 10 -24 -9 -24 11 0 24 13 7 23 20 21 29 -1 9 2 22 8 29 8 10 7 12 -3 10
-7 -2 -15 3 -18 11 -3 10 0 12 12 8 8 -3 15 -3 14 1 -1 4 3 17 10 28 6 12 9
24 6 27 -12 12 25 0 42 -13 12 -10 15 -11 10 -2 -4 7 -3 19 4 27 8 10 8 15 0
20 -8 5 -6 13 6 26 21 23 19 23 21 2z m-32 -32 c7 -12 -12 -24 -25 -16 -11 7
-4 25 10 25 5 0 11 -4 15 -9z m-184 -104 c-10 -9 -11 -8 -5 6 3 10 9 15 12 12
3 -3 0 -11 -7 -18z m-171 -104 c-27 -26 -46 -51 -44 -55 3 -4 0 -8 -5 -8 -6 0
-11 -6 -11 -14 0 -8 -4 -18 -10 -21 -7 -4 -7 3 0 19 5 14 7 26 4 26 -2 0 4 10
15 22 11 11 17 26 14 32 -3 6 -3 8 1 4 11 -9 36 14 28 26 -3 5 2 7 11 3 9 -3
18 0 21 9 3 9 10 13 15 10 5 -3 -13 -27 -39 -53z m150 17 c-13 -11 -28 -20
-33 -20 -6 0 0 9 13 20 13 11 28 20 33 20 6 0 0 -9 -13 -20z m58 1 c8 -4 12
-19 10 -32 -3 -21 -8 -24 -41 -22 -33 2 -44 -3 -83 -42 -42 -43 -44 -47 -44
-105 0 -42 -4 -60 -13 -60 -9 0 -11 18 -7 69 4 60 9 74 35 101 17 18 44 39 60
47 17 9 36 24 43 34 15 21 21 23 40 10z m-108 -27 c8 -8 9 -14 4 -12 -15 4
-64 -33 -57 -45 3 -5 1 -7 -5 -3 -5 3 -13 0 -15 -6 -4 -9 -6 -9 -6 -2 -1 7 14
25 33 42 19 17 32 33 29 36 -4 3 -4 6 -1 6 3 0 11 -7 18 -16z m372 -18 c19 -8
39 -26 46 -40 11 -25 11 -26 -16 -20 -36 9 -38 10 -62 44 -24 34 -18 36 32 16z
m-358 -92 c-9 -13 -21 -24 -26 -24 -5 0 -6 -4 -3 -10 3 -5 1 -10 -4 -10 -16 0
-8 32 14 57 24 29 39 19 19 -13z m-197 -16 c-3 -8 -6 -5 -6 6 -1 11 2 17 5 13
3 -3 4 -12 1 -19z m84 -5 c-12 -20 -14 -14 -5 12 4 9 9 14 11 11 3 -2 0 -13
-6 -23z m-141 -61 c-1 -15 -7 -38 -14 -50 -12 -23 -13 -23 -14 12 -1 20 3 36
9 36 6 0 9 9 6 20 -3 11 -1 18 4 14 5 -3 9 -17 9 -32z m64 23 c3 -8 1 -15 -4
-15 -6 0 -10 7 -10 15 0 8 2 15 4 15 2 0 6 -7 10 -15z m83 -6 c2 -16 -1 -19
-9 -11 -5 5 -7 15 -4 21 10 15 12 14 13 -10z m77 -4 c-4 -8 -8 -15 -10 -15 -2
0 -4 7 -4 15 0 8 4 15 10 15 5 0 7 -7 4 -15z m-72 -59 c2 -19 10 -31 26 -37
27 -10 39 -36 23 -52 -6 -6 -11 -32 -11 -57 0 -42 4 -50 58 -102 31 -31 66
-58 77 -60 14 -2 20 -11 20 -28 0 -20 -5 -25 -25 -25 -17 0 -26 6 -28 20 -5
27 -42 66 -55 58 -6 -3 -7 -2 -4 4 3 5 -9 25 -28 43 -31 30 -35 40 -35 86 0
29 -5 56 -11 59 -5 4 -9 19 -7 33 2 16 -2 26 -9 25 -9 -2 -11 30 -4 66 3 13
11 -9 13 -33z m-82 14 c0 -5 -2 -10 -4 -10 -3 0 -8 5 -11 10 -3 6 -1 10 4 10
6 0 11 -4 11 -10z m153 -24 c6 -16 -2 -28 -14 -20 -12 7 -11 34 0 34 5 0 11
-6 14 -14z m-203 -88 c0 -6 8 -4 18 5 10 10 22 14 25 10 10 -10 8 -131 -2
-137 -5 -3 9 -24 30 -46 22 -23 37 -45 34 -49 -2 -5 3 -8 12 -7 9 0 18 -6 20
-14 4 -12 2 -12 -5 -2 -7 10 -11 10 -22 -2 -7 -9 -16 -14 -20 -11 -4 2 -12 -7
-18 -20 -12 -25 -45 -25 -36 0 3 7 0 16 -7 21 -8 5 -10 3 -4 -7 8 -12 6 -12
-8 0 -9 7 -17 22 -17 32 0 11 -6 19 -13 19 -13 0 -41 60 -32 68 2 3 9 -6 14
-19 5 -13 18 -30 29 -38 12 -8 19 -18 16 -22 -2 -4 4 -10 15 -14 11 -3 22 -13
26 -23 5 -14 9 -12 19 13 12 27 11 32 -7 53 -11 12 -17 22 -13 22 5 0 -2 8
-15 19 -19 15 -21 21 -11 34 11 12 10 15 -5 13 -12 -1 -17 5 -15 18 2 10 -1
15 -6 12 -6 -3 -13 1 -16 10 -3 8 -2 12 4 9 6 -3 7 1 4 9 -3 9 -10 13 -15 10
-5 -3 -9 -1 -9 5 0 5 5 13 10 16 6 3 10 12 10 18 0 8 -3 8 -9 -1 -6 -11 -10
-9 -14 7 -4 18 -2 19 14 10 10 -5 19 -15 19 -21z m129 -55 c1 -13 -3 -23 -9
-23 -5 0 -10 19 -9 43 0 32 2 37 9 22 5 -11 9 -30 9 -42z m-180 -67 c-3 -3
-11 5 -18 17 -13 21 -12 21 5 5 10 -10 16 -20 13 -22z m176 21 c-3 -6 4 -17
16 -22 12 -6 22 -14 22 -20 0 -5 7 -16 16 -23 13 -10 11 -10 -11 -1 -16 7 -28
18 -28 26 0 7 -6 13 -14 13 -15 0 -28 24 -19 34 11 11 22 6 18 -7z m195 -77
c0 -5 -2 -10 -4 -10 -3 0 -8 5 -11 10 -3 6 -1 10 4 10 6 0 11 -4 11 -10z
m-105 -28 c-3 -3 -11 0 -18 7 -9 10 -8 11 6 5 10 -3 15 -9 12 -12z m239 -67
c-16 -25 -44 -34 -44 -14 0 5 4 8 9 5 4 -3 16 3 26 14 25 27 29 25 9 -5z
m-103 -17 c5 -87 4 -226 -2 -243 -9 -24 -12 11 -11 123 0 39 -4 72 -9 72 -5 0
-14 11 -21 25 -6 13 -15 22 -21 18 -6 -3 -7 -1 -3 6 4 6 11 9 15 7 4 -3 13 -1
21 5 23 14 30 11 31 -13z m-145 -7 c-3 -5 1 -12 10 -15 8 -3 12 -11 9 -17 -5
-7 -13 -4 -26 7 -23 21 -24 34 -3 34 8 0 13 -4 10 -9z m-29 -91 c19 -22 22
-35 22 -105 -1 -65 -3 -73 -9 -41 -4 21 -5 47 -3 57 7 25 -24 85 -50 97 -12 6
-16 11 -8 11 11 1 11 4 0 19 -13 16 -13 16 6 2 10 -8 29 -26 42 -40z m88 30
c14 -15 15 -20 4 -20 -11 0 -11 -2 1 -10 12 -7 12 -12 2 -22 -9 -9 -12 -9 -12
5 0 10 -9 25 -19 34 -11 9 -18 20 -15 25 8 13 20 9 39 -12z m15 -130 c0 -27
-4 -51 -9 -54 -5 -4 -8 20 -8 53 2 70 17 71 17 1z m-13 -92 c-3 -8 -6 -5 -6 6
-1 11 2 17 5 13 3 -3 4 -12 1 -19z m88 12 c3 -5 1 -10 -4 -10 -6 0 -11 5 -11
10 0 6 2 10 4 10 3 0 8 -4 11 -10z"/>
<path d="M1546 2342 c-3 -5 1 -9 9 -9 8 0 12 4 9 9 -3 4 -7 8 -9 8 -2 0 -6 -4
-9 -8z"/>
<path d="M1650 2215 c-7 -9 -11 -17 -9 -20 3 -2 10 5 17 15 14 24 10 26 -8 5z"/>
<path d="M1476 2133 c-6 -14 -5 -15 5 -6 7 7 10 15 7 18 -3 3 -9 -2 -12 -12z"/>
<path d="M1620 2131 c0 -6 4 -13 10 -16 6 -3 7 1 4 9 -7 18 -14 21 -14 7z"/>
<path d="M1496 1983 c-6 -14 -5 -15 5 -6 7 7 10 15 7 18 -3 3 -9 -2 -12 -12z"/>
<path d="M1698 1873 c7 -3 16 -2 19 1 4 3 -2 6 -13 5 -11 0 -14 -3 -6 -6z"/>
<path d="M1457 1849 c7 -7 15 -10 18 -7 3 3 -2 9 -12 12 -14 6 -15 5 -6 -5z"/>
<path d="M1810 1835 c0 -2 6 -8 13 -14 10 -8 14 -7 14 2 0 8 -6 14 -14 14 -7
0 -13 -1 -13 -2z"/>
<path d="M1426 1761 c-3 -4 4 -17 16 -27 12 -11 18 -13 14 -6 -4 6 -3 12 3 12
5 0 12 -5 14 -10 3 -6 4 -5 3 2 -2 7 -11 13 -22 13 -10 1 -18 6 -16 13 2 14
-4 16 -12 3z"/>
<path d="M1603 1645 c0 -8 4 -12 9 -9 5 3 6 10 3 15 -9 13 -12 11 -12 -6z"/>
<path d="M1340 1486 c0 -2 7 -7 16 -10 8 -3 12 -2 9 4 -6 10 -25 14 -25 6z"/>
<path d="M1452 2462 c-39 -3 -42 -5 -36 -26 3 -13 1 -27 -4 -30 -6 -3 -13 7
-17 22 -6 29 -6 29 -56 19 -30 -6 -48 -14 -45 -21 3 -6 11 -30 18 -54 11 -39
15 -43 38 -38 14 3 49 9 77 12 42 5 56 12 70 33 9 14 29 38 45 52 l28 27 -38
3 c-20 2 -56 3 -80 1z m53 -41 c-3 -12 -11 -21 -17 -21 -6 0 -17 -8 -25 -17
-8 -11 -11 -12 -7 -3 7 12 5 13 -8 3 -8 -7 -18 -10 -21 -6 -4 3 -13 0 -21 -6
-10 -8 -16 -9 -21 -1 -3 5 -12 10 -18 10 -8 0 -8 -3 1 -9 11 -6 10 -10 -4 -15
-21 -8 -31 6 -30 41 1 17 7 27 19 29 15 2 22 -8 18 -29 -1 -5 13 -7 31 -5 25
2 34 9 38 28 4 15 9 20 13 13 8 -13 47 -5 47 10 0 6 3 8 6 4 3 -3 3 -15 -1
-26z"/>
<path d="M1668 2376 c-3 -52 -2 -54 34 -75 l37 -21 29 38 30 38 -41 26 c-88
54 -85 54 -89 -6z m39 17 c-4 -4 6 -12 22 -19 30 -12 35 -34 14 -55 -16 -16
-67 19 -53 36 5 6 7 15 4 18 -7 6 4 27 13 27 4 0 3 -3 0 -7z"/>
<path d="M1725 2350 c-3 -6 1 -7 9 -4 18 7 21 14 7 14 -6 0 -13 -4 -16 -10z"/>
<path d="M1198 2392 c-26 -15 -58 -36 -72 -47 l-26 -20 44 -38 45 -37 60 32
c65 35 65 34 35 106 -16 38 -25 39 -86 4z m62 -20 c0 -7 4 -11 9 -8 5 3 11 -1
15 -9 3 -9 -6 -22 -23 -35 -33 -23 -46 -26 -35 -7 5 8 2 8 -9 -2 -20 -16 -23
-26 -4 -15 9 6 8 3 -1 -8 -12 -15 -16 -15 -42 9 -25 22 -27 27 -15 39 16 16
29 19 20 4 -3 -6 1 -7 9 -4 9 3 14 11 13 17 -1 7 6 11 15 11 10 -1 14 4 11 12
-3 8 3 12 16 11 12 -1 21 -7 21 -15z"/>
<path d="M1039 2273 c-13 -16 -33 -38 -43 -50 l-18 -22 33 5 c19 3 53 -1 76
-9 40 -14 42 -13 66 11 l25 25 -26 22 c-30 24 -66 45 -79 45 -5 0 -20 -12 -34
-27z m88 -25 c10 -11 12 -18 5 -18 -7 0 -12 5 -12 12 0 6 -3 8 -6 5 -4 -4 -1
-14 6 -22 12 -14 9 -15 -18 -10 -16 3 -41 10 -54 15 -21 10 -20 10 7 5 26 -4
27 -4 11 6 -14 9 -15 13 -5 19 20 13 48 8 66 -12z"/>
<path d="M944 2149 c-10 -19 -24 -46 -31 -61 -12 -27 -11 -28 21 -28 22 0 36
-6 40 -16 5 -13 1 -15 -21 -11 -46 9 -69 -7 -82 -57 -14 -58 -14 -60 7 -51 9
5 41 13 70 19 53 12 54 12 78 71 13 33 38 80 54 104 17 24 28 46 25 49 -3 4
-37 8 -75 10 l-68 4 -18 -33z m124 8 c18 7 15 -12 -5 -28 -17 -13 -17 -13 -3
6 14 19 14 19 -3 6 -10 -8 -16 -19 -14 -26 7 -17 -20 -48 -35 -40 -7 3 -4 -1
6 -9 11 -9 16 -16 10 -16 -11 0 -35 -50 -29 -60 6 -10 -50 -30 -81 -30 -20 0
-22 3 -15 22 4 12 14 24 22 26 11 3 11 1 -1 -7 -8 -6 -10 -11 -4 -11 6 0 17 7
24 15 7 9 21 13 31 10 11 -4 19 -3 20 2 0 4 2 16 4 26 2 9 -1 17 -6 17 -6 0
-8 4 -5 8 3 5 -1 9 -9 10 -8 1 -21 3 -29 4 -12 1 -12 6 2 27 26 43 52 59 81
51 14 -4 32 -5 39 -3z"/>
<path d="M3572 1948 c-20 -20 -14 -56 13 -74 23 -15 27 -15 50 0 44 29 28 86
-25 86 -14 0 -31 -5 -38 -12z m66 -40 c-5 -15 -36 -19 -44 -7 -3 6 -3 17 0 25
5 12 10 13 26 4 12 -6 20 -16 18 -22z"/>
<path d="M2680 1730 l0 -210 40 0 40 0 0 210 0 210 -40 0 -40 0 0 -210z m56
144 c5 -26 3 -39 -7 -45 -8 -5 -9 -9 -3 -9 8 0 11 -43 10 -135 0 -122 -2 -135
-18 -135 -16 0 -17 15 -17 180 0 148 3 180 14 180 8 0 17 -15 21 -36z"/>
<path d="M2717 1793 c-10 -9 -9 -33 1 -33 4 0 8 9 9 20 2 21 0 24 -10 13z"/>
<path d="M2875 1916 c-13 -13 -27 -40 -30 -60 -5 -26 -12 -36 -26 -36 -15 0
-19 -7 -19 -35 0 -28 4 -35 20 -35 19 0 20 -7 20 -115 l0 -115 43 0 42 0 -3
115 -4 115 39 0 c38 0 39 1 39 35 0 34 -1 35 -38 35 -26 0 -38 4 -38 14 0 25
30 46 54 40 20 -5 24 -1 29 23 7 39 2 43 -54 43 -39 0 -55 -5 -74 -24z m105
-12 c0 -3 -4 -3 -9 0 -5 3 -22 -1 -37 -9 -16 -8 -25 -15 -20 -15 5 0 3 -7 -4
-15 -7 -8 -9 -15 -5 -15 4 0 2 -6 -4 -14 -9 -10 -8 -15 4 -20 8 -3 15 -12 15
-21 0 -8 5 -15 11 -15 5 0 7 5 4 10 -3 6 -1 10 4 10 18 0 13 -20 -6 -27 -33
-13 -41 -26 -32 -55 4 -16 5 -28 1 -28 -4 0 -6 -31 -4 -70 3 -57 1 -70 -11
-70 -21 0 -28 147 -9 167 7 7 9 13 3 13 -5 0 -13 9 -16 20 -4 11 -9 18 -13 16
-4 -2 -13 2 -19 9 -10 11 -9 15 7 20 11 4 20 11 20 16 0 6 5 7 11 3 8 -4 8 -1
1 12 -11 23 -5 47 11 37 7 -4 6 1 -2 10 -10 12 -10 17 -2 17 7 0 19 7 27 15 8
8 22 11 31 8 11 -5 14 -3 8 6 -6 10 -3 11 14 2 11 -7 21 -14 21 -17z"/>
<path d="M4888 1730 l3 -210 32 0 32 0 0 99 c0 117 13 141 76 141 52 0 59 -17
59 -139 l0 -101 35 0 35 0 0 102 c0 130 -21 181 -80 199 -21 6 -49 9 -62 5
-30 -8 -63 -34 -55 -42 4 -4 13 -1 21 6 20 15 73 19 108 8 28 -10 44 -39 33
-58 -3 -5 -2 -10 3 -10 11 0 12 -169 0 -176 -9 -6 -9 -1 -9 98 -1 81 -20 112
-80 128 -38 11 -41 10 -70 -21 -16 -17 -30 -39 -31 -48 0 -9 -2 -20 -3 -26 -2
-5 -3 -41 -4 -78 -1 -45 -5 -66 -11 -62 -6 4 -10 30 -9 59 1 29 -1 58 -5 64
-4 7 -2 12 5 12 8 0 9 14 4 48 -18 114 -10 202 17 186 6 -4 8 -25 5 -53 -3
-26 -2 -53 3 -61 5 -8 10 16 12 63 l3 77 -35 0 -35 0 3 -210z m19 -32 c-3 -8
-6 -5 -6 6 -1 11 2 17 5 13 3 -3 4 -12 1 -19z"/>
<path d="M912 1911 c-29 -10 -55 -20 -58 -23 -3 -3 -8 -39 -11 -79 l-6 -74 36
28 c41 31 47 33 47 12 0 -8 -18 -25 -40 -37 -42 -24 -45 -33 -34 -100 6 -37 7
-37 34 -23 25 13 29 13 34 0 3 -10 -5 -20 -24 -30 -17 -9 -30 -17 -30 -19 0
-1 9 -31 21 -66 17 -52 32 -74 83 -124 43 -42 66 -74 74 -102 17 -59 15 -72
-10 -76 -17 -2 -23 -10 -23 -28 l0 -25 406 -3 c355 -2 408 0 413 13 8 22 -3
45 -23 46 -9 0 -173 0 -365 0 -192 1 -355 3 -363 6 -25 10 -1 23 43 23 l44 0
0 49 c0 28 -4 53 -10 56 -17 10 -11 44 8 54 13 7 23 6 30 -1 14 -14 16 -44 4
-52 -5 -3 -10 -28 -11 -56 l-1 -50 35 0 35 0 0 83 0 83 -76 74 c-41 41 -91
101 -111 133 -20 31 -37 57 -39 57 -1 0 11 -39 28 -87 26 -73 31 -104 32 -183
1 -103 -9 -159 -25 -143 -7 7 -6 32 0 74 10 58 4 138 -12 189 -19 57 -18 57
-32 16 -15 -42 -79 -115 -91 -103 -4 4 6 22 24 40 45 46 65 109 57 177 -6 45
-9 51 -17 35 -6 -11 -20 -31 -32 -44 -11 -13 -15 -21 -9 -17 7 4 23 9 35 11
16 4 19 2 10 -7 -15 -15 -16 -32 -2 -23 6 3 7 -1 3 -10 -4 -13 -8 -14 -14 -4
-4 8 -6 -3 -5 -24 2 -20 -1 -34 -5 -31 -5 3 -9 -2 -9 -12 0 -9 -8 -23 -17 -30
-21 -16 -37 -18 -28 -4 3 6 -3 23 -15 40 l-21 29 24 16 c13 8 33 13 43 9 16
-5 17 -4 3 5 -22 14 -18 49 11 95 15 25 25 58 27 90 1 28 4 77 6 109 4 66 2
67 -81 38z m55 -35 c0 -12 -5 -27 -11 -35 -8 -11 -8 -13 1 -8 8 5 10 -8 8 -45
-4 -70 -4 -70 -14 -64 -5 3 -8 -2 -7 -11 0 -9 -5 -18 -13 -21 -9 -3 -11 0 -6
8 6 9 3 9 -14 1 -24 -13 -28 -23 -6 -15 8 4 15 1 15 -6 0 -6 5 -8 12 -4 7 5 8
3 4 -5 -5 -7 -14 -10 -20 -8 -7 3 -19 1 -27 -5 -11 -8 -11 -9 3 -4 10 3 19 2
22 -2 3 -4 -4 -9 -15 -9 -30 -3 -44 33 -24 63 8 13 22 24 30 24 7 0 17 9 20
20 4 11 10 18 14 16 4 -3 8 1 8 9 0 8 -4 12 -8 10 -4 -3 -10 2 -13 10 -4 12
-10 13 -25 5 -11 -5 -26 -10 -33 -10 -7 1 2 7 21 15 18 8 37 12 42 9 5 -3 9 0
9 5 0 13 -16 14 -39 2 -10 -6 -23 -6 -32 0 -8 5 -9 9 -3 9 7 0 15 7 18 16 6
15 4 15 -10 3 -16 -13 -16 -12 -6 8 15 28 33 38 71 39 24 1 29 -3 28 -20z
m178 -404 c6 -2 9 -8 8 -13 -2 -4 6 -13 17 -19 19 -10 29 -32 13 -28 -5 1 -20
-4 -35 -11 -17 -9 -25 -20 -23 -32 2 -11 0 -19 -6 -19 -5 0 -9 -7 -9 -15 0 -8
5 -15 11 -15 5 0 7 6 3 13 -6 9 -5 9 7 0 16 -13 19 -40 5 -61 -4 -7 -2 -12 6
-13 7 -1 2 -4 -12 -8 -35 -10 -41 6 -29 80 6 35 8 80 5 101 -3 21 -2 38 3 38
9 0 25 -30 23 -42 -1 -4 6 -4 15 -1 13 5 11 11 -15 34 -17 15 -36 38 -42 51
-9 19 -7 18 17 -7 16 -16 33 -32 38 -33z m-110 11 c-2 -10 -4 -22 -4 -28 -1
-5 -5 -3 -11 5 -5 9 -5 19 2 27 14 17 17 16 13 -4z m1 -33 c7 7 10 -8 9 -42 0
-32 -5 -53 -12 -55 -7 -3 -13 0 -13 7 0 6 -4 9 -8 6 -4 -2 -8 4 -9 13 -1 10 8
23 20 28 19 8 19 10 3 16 -10 4 -15 3 -11 -3 10 -16 -11 -11 -26 6 -10 13 -10
17 1 24 8 5 19 5 25 0 7 -6 15 -6 21 0z m-46 -34 c9 -12 8 -15 -8 -13 -10 0
-19 7 -19 14 0 17 12 17 27 -1z m240 -27 c7 -11 9 -23 6 -27 -3 -3 -6 0 -6 7
0 7 -5 9 -12 5 -7 -4 -10 -4 -6 1 4 4 3 14 -3 22 -8 9 -8 13 -1 13 6 0 16 -9
22 -21z m0 -84 c-5 -23 -4 -36 4 -39 6 -2 1 -5 -10 -5 -17 -1 -22 5 -22 27 0
27 14 52 28 52 4 0 4 -16 0 -35z m200 -126 c23 -8 -103 -18 -227 -18 -134 -1
-165 3 -149 20 4 4 365 2 376 -2z m351 2 c3 -1 6 -7 6 -13 0 -10 -40 -12 -176
-9 -97 2 -167 6 -156 9 18 4 18 5 3 11 -13 4 292 6 323 2z"/>
<path d="M901 1881 c-8 -5 -9 -11 -3 -15 5 -3 12 1 16 9 6 17 6 18 -13 6z"/>
<path d="M885 1710 c-3 -6 1 -7 9 -4 18 7 21 14 7 14 -6 0 -13 -4 -16 -10z"/>
<path d="M2312 1720 l-81 -201 46 3 c45 3 47 5 60 45 l14 41 86 -1 86 -2 14
-42 c14 -42 16 -43 60 -43 38 0 44 3 39 18 -3 9 -39 98 -79 197 l-74 180 -45
3 -45 3 -81 -201z m174 128 c10 -23 18 -48 16 -55 -2 -7 1 -13 6 -13 5 0 9 -7
9 -15 0 -8 -5 -11 -10 -8 -6 3 -7 1 -3 -5 4 -7 14 -12 22 -12 10 0 14 -7 11
-17 -2 -10 5 -33 16 -51 10 -18 17 -42 14 -52 -3 -11 -1 -18 4 -14 11 6 35
-43 25 -53 -10 -11 -39 10 -42 31 -6 39 -35 51 -116 49 -65 -1 -82 -5 -107
-25 -20 -16 -28 -29 -24 -42 3 -11 1 -16 -5 -12 -6 3 -13 2 -17 -4 -4 -6 -11
-8 -16 -5 -5 3 0 16 11 27 22 24 27 44 9 32 -7 -4 -2 7 11 24 24 33 69 51 80
32 4 -7 27 -9 61 -6 30 2 57 5 62 5 4 1 7 8 7 17 0 8 3 13 8 11 4 -3 8 7 9 21
1 24 0 24 -9 7 -10 -17 -13 -14 -24 25 -7 24 -11 47 -9 51 3 4 -2 9 -10 13 -8
3 -15 13 -15 23 0 11 -3 14 -10 7 -9 -9 4 -59 35 -136 6 -16 1 -18 -48 -18
l-56 0 30 80 c16 44 25 80 21 80 -11 0 -27 -14 -28 -25 0 -5 -7 -26 -16 -45
-8 -19 -18 -43 -21 -53 -4 -10 -11 -16 -16 -13 -5 3 -7 -3 -4 -14 3 -11 0 -20
-6 -20 -6 0 -11 7 -11 15 0 26 28 85 41 85 6 0 8 7 5 16 -3 8 1 29 9 45 9 16
13 34 10 39 -4 6 1 7 11 3 12 -4 15 -3 10 5 -5 8 2 12 22 12 24 0 32 -7 48
-42z"/>
<path d="M2355 1650 c-3 -5 -1 -10 4 -10 6 0 11 5 11 10 0 6 -2 10 -4 10 -3 0
-8 -4 -11 -10z"/>
<path d="M3960 1890 l0 -30 60 0 60 0 0 -170 0 -170 35 0 35 0 0 170 0 170 60
0 60 0 0 30 0 30 -155 0 -155 0 0 -30z m90 -6 c0 -2 -12 -4 -27 -4 -21 0 -24
3 -14 9 13 8 41 5 41 -5z m185 5 c4 -5 -15 -9 -43 -9 -46 0 -50 -2 -58 -27 -6
-25 -11 -114 -13 -261 -1 -24 -5 -41 -10 -38 -5 4 -9 72 -8 153 0 81 -4 148
-9 150 -27 10 -39 23 -27 31 18 11 162 12 168 1z"/>
<path d="M4085 1880 c-3 -5 -1 -10 4 -10 6 0 11 5 11 10 0 6 -2 10 -4 10 -3 0
-8 -4 -11 -10z"/>
<path d="M4117 1873 c-4 -3 -7 -11 -7 -17 0 -6 5 -5 12 2 6 6 9 14 7 17 -3 3
-9 2 -12 -2z"/>
<path d="M3058 1813 c-37 -18 -37 -18 -23 -50 13 -32 14 -32 42 -18 42 22 89
19 107 -7 9 -12 16 -26 16 -30 0 -5 -30 -8 -66 -8 -59 0 -68 -3 -95 -29 -20
-20 -29 -39 -29 -61 0 -22 9 -41 29 -61 24 -24 38 -29 77 -29 35 0 54 6 70 21
l23 21 -6 -21 c-5 -19 -1 -21 37 -21 l42 0 -3 120 c-4 118 -4 120 -35 151 -26
26 -41 31 -90 35 -44 4 -69 0 -96 -13z m177 -55 c24 -29 34 -55 16 -44 -8 5
-7 -24 3 -116 1 -16 -1 -28 -6 -28 -5 0 -6 -4 -3 -10 3 -5 0 -10 -8 -10 -20 0
-29 26 -21 65 4 26 2 35 -12 43 -18 10 -18 11 0 31 15 16 16 25 8 50 -6 16 -9
31 -7 33 2 2 -4 4 -13 5 -15 2 -81 11 -90 12 -2 1 -1 5 2 10 3 4 28 4 56 -2
36 -7 58 -18 75 -39z m-160 20 c-9 -6 -19 -7 -22 -4 -4 3 -1 6 6 6 7 0 9 4 6
10 -4 6 1 7 11 3 15 -6 15 -7 -1 -15z m18 -114 c-3 -8 -12 -13 -19 -10 -8 3
-14 -1 -14 -10 0 -8 4 -13 8 -10 5 3 9 -1 9 -9 0 -8 -3 -12 -7 -10 -3 2 -6 -5
-6 -15 0 -10 4 -16 8 -14 4 3 12 -5 18 -16 6 -11 15 -18 20 -15 5 3 11 1 14
-3 7 -12 -50 -9 -61 2 -4 5 -3 6 5 2 6 -4 12 -2 12 3 0 6 -5 11 -11 11 -11 0
-39 25 -39 35 0 3 6 3 13 -1 7 -5 6 0 -3 11 -10 13 -11 16 -2 11 9 -6 12 -3
10 10 -2 11 7 23 22 31 31 16 31 16 23 -3z m107 -32 c0 -20 -24 -45 -50 -54
-24 -8 -60 10 -60 30 0 29 21 42 67 42 35 0 43 -3 43 -18z m0 -57 c0 -2 -10
-9 -22 -15 -22 -11 -22 -10 -4 4 21 17 26 19 26 11z"/>
<path d="M3350 1673 l0 -153 40 0 40 0 0 90 c0 83 2 93 25 115 13 14 34 25 47
25 20 0 23 5 23 40 0 34 -3 40 -21 40 -12 0 -33 -9 -47 -20 -31 -25 -40 -25
-33 -2 5 15 0 17 -34 17 l-40 0 0 -152z m150 112 c11 -13 10 -14 -2 -10 -23 9
-88 -57 -88 -88 0 -14 -5 -29 -10 -32 -6 -4 -7 -12 -3 -18 15 -24 4 -101 -12
-85 -11 11 -14 48 -4 48 6 0 7 5 3 12 -11 17 -13 167 -3 174 14 8 50 -6 43
-18 -4 -6 1 -6 14 1 12 6 24 16 27 21 9 14 21 12 35 -5z"/>
<path d="M3570 1674 l0 -154 40 0 40 0 0 154 0 153 -40 0 -40 0 0 -153z m58 6
c0 -116 -1 -130 -17 -130 -13 0 -17 9 -16 48 0 26 4 50 9 53 5 4 5 15 1 25
-11 23 -13 94 -3 94 3 0 10 9 13 20 3 11 8 20 9 20 2 0 4 -58 4 -130z"/>
<path d="M3763 1815 c-38 -16 -53 -42 -53 -89 0 -43 34 -72 95 -82 24 -3 52
-12 61 -18 15 -12 15 -14 -1 -29 -20 -20 -47 -21 -100 -2 -21 8 -40 13 -41 12
-5 -8 -24 -47 -24 -51 0 -17 66 -36 125 -36 60 0 69 3 96 29 29 29 37 68 23
106 -8 20 -48 40 -99 50 -51 9 -69 23 -54 41 13 16 86 19 109 4 11 -7 18 -3
27 13 19 34 16 44 -18 56 -43 15 -107 13 -146 -4z m141 -26 c-2 -4 -33 -6 -69
-4 -36 2 -63 0 -60 -5 6 -10 -14 -25 -22 -16 -3 3 0 12 6 20 9 11 31 15 81 13
38 0 67 -4 64 -8z m-147 -61 c-3 -10 -1 -16 4 -12 5 3 9 -3 9 -13 0 -14 2 -15
9 -5 7 11 9 10 15 -3 3 -9 11 -13 17 -9 8 5 9 3 4 -6 -6 -10 -4 -12 8 -7 9 3
27 3 39 -2 18 -6 19 -9 5 -14 -10 -4 -17 -2 -17 4 0 6 -7 8 -16 5 -17 -7 -85
19 -96 37 -4 7 -8 25 -8 41 0 25 2 27 16 15 8 -7 13 -21 11 -31z m160 -75 c-4
-3 -2 -12 4 -20 9 -9 8 -13 0 -13 -6 0 -11 -5 -11 -11 0 -6 7 -9 15 -5 12 4
13 2 3 -13 -7 -11 -18 -17 -26 -13 -10 3 -13 1 -8 -6 4 -7 2 -12 -4 -12 -6 0
-9 -3 -7 -7 3 -5 -22 -9 -54 -10 -32 -1 -59 2 -59 7 0 5 -9 7 -21 5 -17 -4
-19 -2 -8 11 8 10 15 12 23 4 15 -15 73 -12 106 5 22 11 29 22 28 40 -1 14 -9
25 -18 26 -8 1 -4 5 10 9 34 11 34 11 27 3z"/>
<path d="M4355 1823 c-68 -19 -110 -88 -103 -170 4 -46 10 -60 41 -91 33 -32
42 -36 99 -40 51 -2 69 1 97 18 l33 21 -22 24 c-20 21 -24 22 -37 9 -18 -17
-92 -18 -114 -1 -13 10 -39 49 -39 59 0 2 52 2 116 0 108 -3 115 -2 111 15 -3
10 -8 34 -11 54 -12 70 -98 122 -171 102z m93 -30 c18 -8 36 -22 39 -31 2 -9
9 -26 14 -37 16 -37 14 -47 -9 -51 -19 -3 -21 -1 -13 14 11 21 4 62 -11 62 -5
0 -7 -12 -4 -27 l7 -28 -81 0 c-44 0 -80 1 -80 3 0 2 7 16 15 32 18 35 57 48
98 32 21 -8 35 -8 46 -1 14 9 14 10 -1 5 -10 -3 -18 -2 -18 3 0 4 -10 12 -22
18 -17 8 -33 6 -65 -8 -22 -9 -45 -14 -49 -11 -4 4 -4 2 0 -5 3 -6 2 -14 -4
-18 -5 -3 -10 -19 -10 -36 0 -20 5 -29 18 -30 15 -1 15 -2 0 -6 -25 -7 -30
-33 -11 -62 10 -14 18 -30 18 -36 0 -5 7 -10 15 -11 35 -2 41 -5 35 -14 -3 -5
-11 -10 -16 -10 -6 0 -7 5 -3 12 5 8 2 9 -10 5 -18 -7 -60 28 -51 43 3 4 0 10
-7 12 -34 12 5 171 43 174 8 1 23 3 34 4 l20 1 -20 9 c-16 6 -13 8 15 8 19 0
50 -6 68 -15z m27 -233 c-11 -5 -27 -9 -35 -9 -13 -1 -13 0 0 9 8 5 24 9 35 9
l20 0 -20 -9z m-55 -14 c0 -2 -9 -6 -20 -9 -11 -3 -18 -1 -14 4 5 9 34 13 34
5z"/>
<path d="M4665 1816 c-71 -31 -111 -124 -85 -200 6 -19 27 -49 46 -66 29 -25
43 -30 87 -30 58 0 93 14 114 46 12 19 11 23 -12 38 -23 15 -26 15 -45 -4 -11
-11 -26 -21 -32 -21 -60 -6 -98 32 -98 96 0 46 16 70 57 86 24 9 72 -4 84 -22
6 -10 59 8 59 21 0 12 -45 49 -73 59 -37 14 -65 13 -102 -3z m124 -26 c39 -20
22 -46 -18 -26 -35 18 -94 29 -86 16 3 -6 -3 -10 -15 -10 -15 0 -26 -11 -36
-35 -8 -20 -12 -40 -9 -45 4 -6 2 -10 -3 -10 -6 0 -8 -9 -5 -20 3 -11 2 -28
-3 -37 -6 -14 -9 -8 -14 22 -6 45 8 118 21 109 5 -3 9 2 9 11 0 36 107 53 159
25z m-145 -211 c-3 -5 5 -9 18 -9 33 0 55 -15 33 -24 -17 -6 -69 16 -80 34
-11 17 5 32 21 19 7 -6 11 -15 8 -20z m156 -4 c0 -8 -82 -47 -88 -41 -3 3 0 6
7 6 7 0 9 5 6 10 -3 6 4 10 17 10 13 0 30 5 38 10 17 11 20 12 20 5z"/>
<path d="M5090 1780 c0 -5 5 -10 11 -10 5 0 7 5 4 10 -3 6 -8 10 -11 10 -2 0
-4 -4 -4 -10z"/>
<path d="M956 1605 c-11 -8 -15 -15 -9 -15 6 0 16 7 23 15 16 19 11 19 -14 0z"/>
<path d="M1657 1594 l-18 -25 45 -46 c42 -42 46 -51 46 -95 0 -35 4 -48 12
-46 8 3 13 24 13 54 0 45 -4 53 -42 89 -27 26 -39 45 -34 53 9 15 73 -57 93
-105 14 -34 19 -163 5 -163 -5 0 -7 -7 -4 -15 4 -8 2 -17 -4 -20 -5 -4 -7 -11
-4 -16 4 -5 -14 -9 -41 -9 -41 0 -46 2 -41 20 3 11 1 18 -4 14 -5 -3 -9 7 -9
22 0 26 0 27 20 9 11 -10 20 -14 20 -9 0 5 6 2 13 -7 10 -14 14 -14 25 -3 7 8
10 14 6 14 -4 0 0 8 8 18 18 21 18 44 -1 50 -8 3 -12 -1 -9 -9 7 -19 -9 -49
-26 -49 -8 0 -19 7 -27 16 -10 12 -10 20 -1 35 7 10 12 36 12 57 0 32 -7 45
-45 82 l-45 44 -25 -24 c-24 -23 -25 -27 -25 -162 l0 -138 30 0 30 0 0 77 c0
54 -4 81 -15 93 -29 33 13 76 44 45 13 -12 13 -19 3 -35 -7 -11 -12 -54 -12
-100 l0 -80 65 0 64 0 21 68 c24 76 21 132 -12 195 -19 38 -95 127 -107 127
-3 0 -14 -12 -24 -26z m-15 -88 c7 4 8 2 4 -4 -4 -7 2 -16 17 -21 26 -10 42
-37 27 -46 -6 -4 -10 1 -10 9 0 8 -9 20 -20 26 -11 6 -20 8 -20 4 0 -3 -8 0
-17 7 -11 10 -14 10 -9 2 4 -8 2 -13 -6 -13 -8 0 -14 9 -15 20 -1 11 2 18 7
15 5 -3 12 0 16 7 6 9 9 9 12 0 2 -7 9 -9 14 -6z m55 -99 c0 -7 -6 -18 -14
-25 -16 -15 -17 -8 -3 19 12 22 17 24 17 6z m-87 -36 c0 -6 -4 -12 -8 -15 -5
-3 -9 1 -9 9 0 8 4 15 9 15 4 0 8 -4 8 -9z m-3 -83 c-3 -7 -5 -2 -5 12 0 14 2
19 5 13 2 -7 2 -19 0 -25z m3 -28 c0 -5 -2 -10 -4 -10 -3 0 -8 5 -11 10 -3 6
-1 10 4 10 6 0 11 -4 11 -10z"/>
<path d="M4710 1416 c0 -2 8 -10 18 -17 15 -13 16 -12 3 4 -13 16 -21 21 -21
13z"/>
<path d="M3887 1380 c6 -21 18 -26 28 -11 3 6 -3 15 -14 20 -16 9 -18 8 -14
-9z"/>
<path d="M3400 1362 c0 -26 -3 -28 -30 -24 -38 5 -60 -12 -60 -49 0 -47 48
-77 78 -47 9 9 12 9 12 0 0 -7 4 -12 10 -12 5 0 9 35 8 80 0 44 -5 80 -9 80
-5 0 -9 -13 -9 -28z m-16 -45 c26 -19 18 -61 -13 -65 -42 -6 -62 46 -27 70 15
11 20 10 40 -5z"/>
<path d="M4500 1310 c0 -47 4 -80 10 -80 6 0 10 33 10 80 0 47 -4 80 -10 80
-6 0 -10 -33 -10 -80z"/>
<path d="M4770 1375 c0 -8 5 -15 10 -15 6 0 10 7 10 15 0 8 -4 15 -10 15 -5 0
-10 -7 -10 -15z"/>
<path d="M2273 1305 c-17 -41 -26 -75 -21 -75 5 0 12 9 15 20 8 30 78 28 94
-2 7 -13 14 -18 16 -12 5 14 -54 144 -65 144 -4 0 -22 -34 -39 -75z m67 -16
c0 -5 -13 -9 -30 -9 -35 0 -35 -1 -13 45 l17 35 13 -31 c7 -17 13 -35 13 -40z"/>
<path d="M2405 1305 c0 -41 3 -75 8 -75 4 0 7 34 7 75 0 41 -3 75 -7 75 -5 0
-8 -34 -8 -75z"/>
<path d="M2560 1305 l0 -75 43 0 c55 0 87 27 87 75 0 44 -38 75 -91 75 l-39 0
0 -75z m107 29 c15 -24 15 -29 2 -53 -11 -19 -24 -27 -52 -29 l-37 -3 0 55 0
56 35 0 c26 0 39 -6 52 -26z"/>
<path d="M3021 1371 c-8 -5 -12 -18 -8 -31 3 -11 -2 -34 -11 -50 -14 -23 -14
-31 -3 -44 15 -18 66 -22 76 -6 5 8 11 8 19 1 9 -8 12 -1 12 24 0 19 -4 35 -8
35 -4 0 -8 -8 -8 -17 0 -15 -3 -14 -22 5 -21 21 -21 22 -4 35 38 28 -3 74 -43
48z m49 -21 c0 -4 -7 -13 -16 -21 -13 -10 -17 -10 -24 1 -11 18 7 41 26 33 8
-3 14 -9 14 -13z m-18 -67 c22 -20 23 -29 3 -37 -22 -8 -45 4 -45 23 0 33 15
38 42 14z"/>
<path d="M3190 1305 l0 -75 50 0 c28 0 50 5 50 10 0 6 -18 10 -40 10 -36 0
-40 3 -40 25 0 22 4 25 35 25 19 0 35 4 35 10 0 6 -15 8 -35 4 -32 -5 -35 -3
-35 20 0 24 4 26 40 26 22 0 40 5 40 10 0 6 -22 10 -50 10 l-50 0 0 -75z"/>
<path d="M4266 1364 c-30 -30 -17 -53 39 -71 46 -15 39 -38 -12 -37 -24 0 -43
-3 -43 -7 0 -13 47 -22 75 -15 20 5 25 13 25 36 0 25 -5 31 -40 41 -54 16 -52
45 3 43 38 -1 49 9 21 20 -27 10 -52 7 -68 -10z"/>
<path d="M3821 1358 c0 -10 -7 -18 -13 -18 -10 0 -10 -2 -1 -8 6 -4 13 -28 15
-52 2 -38 7 -46 26 -48 12 -2 22 1 22 7 0 6 -9 11 -20 11 -17 0 -20 7 -20 41
0 32 3 40 15 36 8 -4 17 -2 20 3 4 6 -3 10 -14 10 -11 0 -22 8 -24 18 -4 16
-5 16 -6 0z"/>
<path d="M4690 1355 c0 -8 -6 -15 -12 -15 -9 0 -8 -3 2 -10 9 -6 14 -21 12
-40 -2 -17 2 -38 8 -46 14 -16 50 -19 50 -4 0 6 -8 10 -17 8 -15 -2 -19 6 -21
41 -3 36 -1 43 12 38 9 -4 16 -2 16 3 0 6 -7 10 -15 10 -8 0 -15 7 -15 15 0 8
-4 15 -10 15 -5 0 -10 -7 -10 -15z"/>
<path d="M2898 1302 l-22 -52 -17 42 c-9 23 -21 44 -28 46 -6 2 -1 -19 12 -49
12 -29 27 -54 33 -56 12 -4 59 105 50 114 -3 4 -16 -17 -28 -45z"/>
<path d="M2965 1341 c-3 -5 -2 -12 3 -15 5 -3 9 1 9 9 0 17 -3 19 -12 6z"/>
<path d="M4564 1301 c1 -63 21 -85 56 -63 12 7 20 8 20 2 0 -5 3 -10 8 -10 4
0 7 25 7 55 0 30 -3 55 -7 55 -5 0 -8 -18 -8 -40 0 -28 -5 -42 -19 -49 -28
-16 -49 7 -54 59 -4 39 -4 38 -3 -9z"/>
<path d="M2720 1321 c-30 -58 26 -115 80 -81 20 13 5 24 -16 12 -12 -7 -25 -7
-36 -1 -31 17 -20 29 27 29 49 0 53 5 29 38 -20 28 -69 30 -84 3z m68 -3 c20
-20 14 -28 -23 -28 -19 0 -35 4 -35 8 0 12 22 32 35 32 6 0 16 -5 23 -12z"/>
<path d="M3450 1296 c0 -52 14 -66 63 -64 l37 1 0 54 c0 63 -18 72 -22 11 -3
-38 -6 -43 -28 -43 -22 0 -25 5 -28 43 -4 55 -22 54 -22 -2z"/>
<path d="M3587 1320 c-17 -25 -10 -68 14 -83 18 -11 69 -2 69 13 0 5 -13 7
-28 4 -33 -7 -57 15 -47 45 8 25 31 34 57 20 16 -9 19 -8 16 3 -8 23 -64 22
-81 -2z"/>
<path d="M3697 1333 c-15 -14 -6 -23 14 -13 25 14 49 6 49 -16 0 -11 -5 -14
-16 -10 -25 9 -56 -12 -52 -37 2 -18 10 -22 46 -23 l42 -2 0 42 c0 23 -5 47
-12 54 -13 13 -60 16 -71 5z m63 -67 c0 -8 -7 -17 -16 -20 -19 -7 -47 12 -38
25 9 15 54 10 54 -5z"/>
<path d="M3890 1285 c0 -30 5 -55 10 -55 6 0 10 25 10 55 0 30 -4 55 -10 55
-5 0 -10 -25 -10 -55z"/>
<path d="M3952 1328 c-17 -17 -15 -64 4 -83 24 -23 66 -15 83 16 13 24 13 29
-2 53 -19 28 -63 36 -85 14z m63 -11 c21 -16 15 -61 -10 -71 -22 -8 -56 29
-48 51 12 33 30 39 58 20z"/>
<path d="M4070 1283 c0 -29 5 -53 10 -53 6 0 10 17 10 39 0 42 18 65 44 55 11
-4 16 -19 16 -50 0 -24 5 -44 10 -44 15 0 12 86 -3 99 -8 6 -30 10 -50 9 l-37
-1 0 -54z"/>
<path d="M4386 1324 c-21 -21 -20 -57 2 -77 24 -22 55 -21 75 1 34 37 11 92
-38 92 -13 0 -31 -7 -39 -16z m64 -8 c6 -8 10 -25 8 -38 -2 -18 -9 -23 -33
-23 -24 0 -31 5 -33 23 -4 25 13 52 33 52 7 0 18 -7 25 -14z"/>
<path d="M4770 1285 c0 -30 5 -55 10 -55 6 0 10 25 10 55 0 30 -4 55 -10 55
-5 0 -10 -25 -10 -55z"/>
<path d="M4832 1328 c-24 -30 -18 -76 13 -90 40 -18 75 3 75 45 0 18 -5 38
-12 45 -16 16 -63 15 -76 0z m62 -14 c19 -19 20 -36 4 -52 -26 -26 -68 -9 -68
28 0 11 29 40 40 40 5 0 16 -7 24 -16z"/>
<path d="M4950 1283 c0 -29 5 -53 10 -53 6 0 10 20 10 44 0 45 15 61 45 50 10
-4 15 -20 15 -50 0 -24 5 -44 10 -44 15 0 12 86 -3 99 -8 6 -30 10 -50 9 l-37
-1 0 -54z"/>
<path d="M5080 1325 c-15 -19 3 -45 31 -45 10 0 21 -5 25 -11 10 -17 -16 -28
-44 -18 -18 7 -23 6 -20 -3 7 -19 63 -22 77 -4 19 23 7 42 -29 49 -38 8 -35
33 4 30 14 -1 26 2 26 8 0 15 -56 10 -70 -6z"/>
<path d="M2459 1260 c-4 -26 -3 -60 2 -60 12 0 19 44 9 54 -6 6 -10 8 -11 6z"/>
<path d="M1017 1086 c-9 -13 -32 -33 -51 -45 -35 -22 -64 -80 -51 -101 4 -7
175 -10 501 -10 l494 0 0 31 c0 23 -10 41 -36 65 -19 19 -39 34 -43 34 -4 0
-14 11 -21 25 l-13 25 -383 0 -382 0 -15 -24z m723 -8 c0 -7 4 -7 14 1 11 9
27 0 77 -49 35 -33 55 -57 45 -54 -13 5 -17 4 -12 -4 5 -8 -112 -11 -445 -12
-248 0 -455 -3 -459 -5 -4 -3 -10 2 -14 10 -3 8 -1 17 5 20 5 4 6 11 3 17 -4
6 -3 8 3 5 5 -3 28 12 52 33 23 21 52 40 64 42 12 2 167 4 345 5 228 2 322 -1
322 -9z"/>
<path d="M1766 1061 c-4 -5 -2 -12 3 -15 5 -4 12 -2 15 3 4 5 2 12 -3 15 -5 4
-12 2 -15 -3z"/>
<path d="M1846 983 c-6 -14 -5 -15 5 -6 7 7 10 15 7 18 -3 3 -9 -2 -12 -12z"/>
<path d="M880 891 c-16 -31 -12 -69 10 -81 13 -7 191 -9 537 -8 l518 3 3 38
c6 71 36 67 -539 67 -502 0 -519 -1 -529 -19z m55 -11 c-3 -5 -1 -10 4 -10 6
0 11 3 11 8 0 10 946 5 965 -6 10 -5 13 -15 9 -25 -6 -16 -45 -17 -513 -17
l-507 1 -2 24 c-1 15 5 25 16 28 9 3 18 5 20 6 2 0 0 -3 -3 -9z"/>
</g>
</svg>
